<svg xmlns="http://www.w3.org/2000/svg" viewBox="85 25 912 310"><path d="M776,254.5c-11.3,29.4-38.1,46.7-69,45.8-17.7-.5-33.7-6.9-45.6-19.7-1.5-1.6-4.2-.5-4.2,1.7v12.4c-.2,1.3-1.2,2.4-2.6,2.4h-28.6c-1.3,0-2.4-1.1-2.4-2.5V84.7c0-1.3,1-2.4,2.4-2.4l29.3-.2c1.4,0,2.5,1.1,2.5,2.4v73.7c0,2.2,2.7,3.3,4.2,1.7,13-13.6,30.2-19.8,49-19.5,28.2.5,53.3,16.4,64.1,42.7,9.3,22.8,10,47.9,1,71.3ZM696,272.8c17.6,2.1,33.5-5.2,42.8-20,10.2-16.4,11.3-36.4,5.3-54.7-6.1-18.6-22.5-30.2-42.1-30s-36.2,9.8-41.4,27.8-4.6,35.4.6,50.8,18.6,24.1,34.8,26Z" />
  <path d="M516.9,296.9l.5-119s0-2,0-2l.2-13.8c0-1.3,1.2-2,2.5-2.2,5.7-.7,18.5-6.2,22-10.5s4.3-3.7,6.6-3.5,2.2,1.1,2.2,2.3l.3,14.3c0,2.3,3,3.2,4.3,1.3,10-14.7,25.6-21.8,43.4-19.7s2.1,1.1,2.1,2.3v27.5c0,1.3-1.1,2.3-2.4,2.3l-20,.6c-19.4.5-28.6,24.4-27.5,44.6v75.6c0,1.3-1,2.3-2.3,2.3h-29.4c-1.3,0-2.3-1-2.3-2.3Z" />
  <path d="M913.2,269.4h22.5c1.4-.1,2.5,1,2.5,2.3v22.9c0,1.3-1,2.4-2.3,2.4-21.3,1.2-47.4,4.7-60.7-10-6.7-7.4-9.2-17-9.2-27.1V125.8c0-.8.4-1.6,1.1-2.1l31.2-19.5c1.6-1,3.7.1,3.7,2.1v34.8c.1,1.4,1.2,2.4,2.6,2.4l31.1-.2c1.4,0,2.5,1.1,2.5,2.4v23.6c0,1.3-1.1,2.4-2.4,2.4h-31.3c-1.3,0-2.4,1.1-2.4,2.5v83.6c0,5.9,5.4,11.6,11.2,11.5Z" />
  <rect x="746.1" y="202.6" width="153.9" height="35.3" rx="2.4" ry="2.4" transform="translate(602.0051 1043.0687) rotate(-89.9456)" />
  <circle cx="823.6" cy="105" r="22" />
  <path d="M992.4,159.7c0,9.6-7.8,17.4-17.4,17.4s-17.4-7.8-17.4-17.4,7.8-17.4,17.4-17.4,17.4,7.8,17.4,17.4ZM988.6,159.6c0-7.5-6.1-13.5-13.5-13.5s-13.5,6.1-13.5,13.5,6.1,13.5,13.5,13.5,13.5-6.1,13.5-13.5Z" />
  <path d="M981.6,166.4c.5.9,0,2-1,2.2s-2,.5-2.8-2l-1.6-3.7c-.5-.9-1-1.3-2.3-1.2-4,.3.5,5.9-2,6.6h-.8c-1.2.3-2.3-.6-2.3-1.9v-13.4c0-1.1.9-2,2.1-2h6.1c1.5,0,4.5,1.1,4.7,4.5s-1.8,4.3-3.5,4.7.5,1.4.8,2l2.8,4.3ZM978.4,156.4c.4-2.5-3.1-4.1-5.7-2.2s-.6.7-.7,1.1c-.9,5.1.9,4.2,2.6,3.9s3.6-1.4,3.8-2.8Z" />
  <path d="M352.6,327.8c-34.9,3.3-67.6-6.7-95.3-25.8-10.1-7-17.8-15.4-25.1-25s-23.6-11.8-38.3-8.9c-23.3,4.5-98.7,21.1-104.2,2.3s18.3-24.5,28.4-30.3l46.4-26.4c18.1-10.3,27.3-27.1,29.2-47.6,3.5-39.2,23.3-76.4,53.7-101.6,41.2-34.1,97.6-42.8,147.5-24.2,21,7.8,38.1,21.4,52.8,38,13.3,15.1,31.1,20.8,51.1,17.3l53.2-9.4c14.8-2.7,34.1-1.7,37.2,6.3,7,18.4-64.3,54.8-84.5,65-11.8,6-18.8,16.2-20.1,29.1l-2.7,26.4c-10.4,61.7-66.2,108.8-129.2,114.7ZM408.7,190.9c26.8-10.8,52.3-22,77.7-35.3,16.3-8.5,65-34.5,58.1-48.2s-17.6-6.6-26.6-5.4l-34.3,4.9c-15.6,2.2-33.8-.1-44.7-12.7-28.1-32.4-68.6-50.4-111.6-45.5-44.8,5-84,32.4-104,72.8-8.4,16.9-12.7,34.1-14.4,52.7-1.6,17.3-12.1,30.7-26.5,39.4l-31.2,18.8c-7.4,4.5-19.8,15.9-18.6,22,2.4,12.5,40,6.9,56.6,4,72.1-12.9,151.3-39.9,219.5-67.4ZM266.9,256.2c44.6,45.5,112.1,42.5,153.5-3.6,15.8-17.6,25.3-38.5,27.6-62.3-5.3,0-9.6,1.6-13.6,4.3-4.4,27.4-19.6,51.3-42.5,66.2-36.5,23.8-83,19.5-114.4-10.4-4.4.5-8.6,1.7-10.7,5.8ZM264,264c19.7,23,49.9,34.2,80,32.8,54.7-2.6,105.2-44.8,107.9-100.8-5.3,20.3-12.8,39.5-25.9,56.2-24.3,28.7-60.8,43.1-98.1,39.3s-45-12.1-63.9-27.4ZM291.7,246.6c17.5,13.2,38,19.5,59.3,16.4,33.6-4.9,61.2-29.4,68.4-62.6l-4.6,1.7c-8.7,32.2-36.6,55.3-70.1,57.6-17.8,1.2-34.3-4.6-48.8-14.8-1.2,0-3.5.8-4.2,1.6ZM304.5,304c19.1,7.8,38.8,8.8,58.5,5.2,50.4-9.2,93.4-47,99.9-99.3-8.1,19.6-16.8,38.2-31.2,53.9-25.5,27.9-61.6,43.1-99.3,39.8s-42.1-11.9-63.3-23.1c9.1,11.2,22.2,18,35.3,23.4Z" />
  <path d="M425.7,177.9c-65.3,27.1-144.7,54.8-213.4,70.5-17.4,4-67.2,14.2-71.4,3.8s11.3-15.5,19.7-20.6l33-19.8c13.9-8.4,21.1-22.7,22.5-38.7,5.6-61.1,48.9-109.3,109.8-116.7,39.8-4.9,78,9.9,104.7,39.1s30.8,20.1,51.2,16.5,46.2-8.4,53.8-2.6c9.3,7-21.6,25.4-33.6,32-24.8,13.9-50,25.6-76.4,36.6ZM475,148.2c9.9-5.9,29.3-18.8,26.4-25.8-2.6-6.3-17.6-5-28.3-3.2-24.3,3.9-35.3-4.3-51.1-21-11.7-12.4-26.1-21.6-41.9-27.9-25.7-10.4-52.4-9.9-78.3-.3-46.6,17.3-74.6,57.9-78.2,106.9-1.3,18.2-12,32.1-27.3,40.6s-23,13.9-20.2,20.8c5,12.3,68.8-2.4,88.4-7.6,67.7-17.7,150.6-46.8,210.4-82.5Z" />
  <path d="M415.2,161.3c-46.6,21.9-96.1,38.5-145.6,51.7-10.9-23.4-9.9-48.8,2.4-71.1,15.5-28.2,46.8-44,78.8-39.5,30.8,4.3,57,27.1,64.4,58.9Z" />
  <path d="M271.9,134.4c-15.5,24.1-18.5,52.6-7.2,79.3-13.2,4.7-30,5.3-24.2-1.1s6.9-10.1,5.8-16.5c-7-44.4,16.9-88.2,58.4-105,43.6-17.6,92.2-.8,115.7,39.8,3,6.1,7.6,10.2,14.3,11.6s1.4.5,2.2.8c2.8,1.3,3.1,5.1.7,7-4.3,3.4-12.4,6.7-18.2,8.9-10.9-37.9-43.8-62.9-81.8-61.7-26.1.8-51.1,13.9-65.8,36.9Z" />
  <path d="M423.5,112.5c-36.2-44.2-94.1-55-142.3-23.1-30.4,20.1-48.1,53.7-49.8,89.9s-7.4,28.6-19.7,37.5-12.2,10.3-11.3,13.5c1.5,5.7,16.3,3.1,25.9,3.2-11.9,3.3-22.1,4.5-34.7,5.1s-7.5.4-8.9-2.6c-2.1-4.3,10.3-12.9,18.6-17.5,15.4-8.5,24.7-22.9,26.3-40.7s9.1-46.8,23.9-66.2,50.2-41.8,83.1-43.7c25.5-1.5,50.6,6.5,71,21.4,9.5,6.9,16.8,15.2,25,23,24.6,23.4,52.5,3.6,63.8,11s-7.8,13.5-16.2,18l-18.3,10c7.2-5.8,21.8-14.4,20-20.4s-1.1-2.9-4.1-2.9h-18.9c-13.9.2-24.8-4.9-33.6-15.6Z" />
</svg>